<?xml version="1.0" standalone="no"?>
<!DOCTYPE svg PUBLIC "-//W3C//DTD SVG 20010904//EN"
 "http://www.w3.org/TR/2001/REC-SVG-20010904/DTD/svg10.dtd">
<svg version="1.0" xmlns="http://www.w3.org/2000/svg"
 width="80.000000pt" height="119.000000pt" viewBox="0 0 80.000000 119.000000"
 preserveAspectRatio="xMidYMid meet">
<metadata>
Created by potrace 1.16, written by Peter Selinger 2001-2019
</metadata>
<g transform="translate(0.000000,119.000000) scale(0.100000,-0.100000)"
fill="#000000" stroke="none">
<path d="M352 1160 c-46 -28 -72 -76 -72 -133 0 -67 21 -102 81 -132 43 -23
54 -24 89 -15 83 22 126 85 118 170 -6 56 -25 83 -80 111 -48 24 -95 24 -136
-1z"/>
<path d="M496 861 c-7 -10 -27 -12 -82 -9 -84 6 -77 16 -74 -102 2 -100 -36
-239 -82 -299 -10 -13 -18 -28 -18 -32 0 -5 83 -9 185 -9 102 0 185 2 185 4 0
2 -11 23 -24 47 -56 101 -69 148 -75 284 -4 81 -9 125 -15 116z"/>
<path d="M190 365 c-7 -9 -10 -19 -6 -23 10 -9 462 -9 472 0 4 4 1 14 -6 23
-19 22 -441 22 -460 0z"/>
<path d="M175 303 c-39 -10 -45 -23 -45 -99 l0 -74 295 0 295 0 0 69 c0 63 -2
71 -26 90 -25 20 -38 21 -263 20 -130 -1 -245 -4 -256 -6z"/>
</g>
</svg>
