<?xml version="1.0" standalone="no"?>
<!DOCTYPE svg PUBLIC "-//W3C//DTD SVG 20010904//EN"
 "http://www.w3.org/TR/2001/REC-SVG-20010904/DTD/svg10.dtd">
<svg version="1.0" xmlns="http://www.w3.org/2000/svg"
 width="64.000000pt" height="127.000000pt" viewBox="0 0 64.000000 127.000000"
 preserveAspectRatio="xMidYMid meet">
<metadata>
Created by potrace 1.16, written by Peter Selinger 2001-2019
</metadata>
<g transform="translate(0.000000,127.000000) scale(0.100000,-0.100000)"
fill="#000000" stroke="none">
<path d="M297 1213 c-11 -11 -8 -58 5 -71 10 -10 -5 -30 -70 -95 -85 -85 -97
-111 -72 -158 10 -17 23 -19 154 -19 130 0 146 2 170 21 43 34 34 56 -61 151
-83 83 -86 88 -74 111 18 33 6 67 -23 67 -12 0 -26 -3 -29 -7z"/>
<path d="M171 841 c-8 -5 -11 -16 -8 -25 9 -24 315 -24 324 -1 3 9 2 19 -2 23
-10 11 -298 14 -314 3z"/>
<path d="M244 663 c1 -119 -19 -198 -76 -299 -15 -28 -28 -53 -28 -55 0 -2 84
-3 186 -1 102 2 184 6 182 10 -88 173 -113 264 -103 380 l7 72 -84 0 -84 0 0
-107z"/>
<path d="M90 265 c-26 -31 -1 -35 241 -35 228 0 239 1 239 19 0 10 -7 22 -16
25 -9 3 -114 6 -234 6 -178 0 -220 -3 -230 -15z"/>
<path d="M44 187 c-3 -8 -4 -47 -2 -88 l3 -74 285 0 285 0 3 75 c2 62 0 77
-14 87 -26 19 -552 19 -560 0z"/>
</g>
</svg>
