<?xml version="1.0" standalone="no"?>
<!DOCTYPE svg PUBLIC "-//W3C//DTD SVG 20010904//EN"
 "http://www.w3.org/TR/2001/REC-SVG-20010904/DTD/svg10.dtd">
<svg version="1.0" xmlns="http://www.w3.org/2000/svg"
 width="63.000000pt" height="134.000000pt" viewBox="0 0 63.000000 134.000000"
 preserveAspectRatio="xMidYMid meet">
<metadata>
Created by potrace 1.16, written by Peter Selinger 2001-2019
</metadata>
<g transform="translate(0.000000,134.000000) scale(0.100000,-0.100000)"
fill="#000000" stroke="none">
<path d="M240 1315 c-7 -19 -5 -34 7 -60 16 -34 16 -36 -5 -58 -12 -13 -27
-37 -33 -55 -11 -32 -11 -32 -63 -26 -36 4 -63 1 -89 -9 -43 -18 -46 -29 -14
-49 12 -9 42 -43 67 -77 l45 -61 140 0 140 0 24 38 c14 20 45 58 70 84 l45 47
-39 17 c-28 11 -55 14 -90 10 l-51 -6 -22 43 c-12 23 -28 50 -34 59 -10 14
-10 22 0 38 15 25 16 62 0 78 -7 7 -29 12 -50 12 -32 0 -40 -4 -48 -25z"/>
<path d="M142 881 c-8 -5 -12 -22 -10 -42 l3 -34 160 0 160 0 3 36 c3 31 -1
37 -20 43 -35 9 -281 7 -296 -3z"/>
<path d="M205 653 c0 -117 -2 -134 -28 -200 -16 -40 -39 -89 -53 -108 -13 -20
-24 -37 -24 -38 0 -1 87 -2 194 -2 l194 0 -25 45 c-14 25 -31 54 -38 65 -24
39 -45 164 -45 264 l0 101 -87 0 -88 0 0 -127z"/>
<path d="M239 283 c-130 -3 -170 -7 -179 -18 -6 -8 -9 -19 -5 -25 8 -12 471
-14 479 -1 3 4 0 15 -7 23 -15 20 -78 25 -288 21z"/>
<path d="M64 203 c-52 -7 -65 -31 -62 -109 l3 -69 290 0 290 0 3 71 c4 111 9
109 -267 110 -124 1 -240 0 -257 -3z"/>
</g>
</svg>
