<?xml version="1.0" standalone="no"?>
<!DOCTYPE svg PUBLIC "-//W3C//DTD SVG 20010904//EN"
 "http://www.w3.org/TR/2001/REC-SVG-20010904/DTD/svg10.dtd">
<svg version="1.0" xmlns="http://www.w3.org/2000/svg"
 width="83.000000pt" height="162.000000pt" viewBox="0 0 83.000000 162.000000"
 preserveAspectRatio="xMidYMid meet">
<metadata>
Created by potrace 1.16, written by Peter Selinger 2001-2019
</metadata>
<g transform="translate(0.000000,162.000000) scale(0.100000,-0.100000)"
fill="#000000" stroke="none">
<path d="M397 1604 c-4 -4 -7 -20 -7 -36 0 -25 -3 -28 -36 -28 -21 0 -33 -4
-29 -10 3 -5 19 -10 36 -10 16 0 30 -6 30 -12 8 -62 3 -85 -23 -116 -32 -38
-34 -49 -12 -81 16 -23 15 -25 -85 -125 -55 -56 -101 -108 -101 -117 0 -8 22
-36 48 -62 l48 -47 140 0 141 0 47 50 c25 27 46 54 46 61 0 7 -45 58 -101 114
l-101 103 15 28 c17 34 13 50 -20 85 -20 21 -24 35 -21 70 3 41 5 44 33 47 46
5 55 22 12 22 -32 0 -37 4 -43 28 -3 15 -7 31 -8 35 -1 5 -5 5 -9 1z"/>
<path d="M358 933 l-118 -4 0 -39 0 -40 165 0 165 0 0 40 c0 37 -2 40 -27 40
-16 0 -37 2 -48 3 -11 2 -73 2 -137 0z"/>
<path d="M318 730 c3 -50 -1 -119 -8 -153 -12 -66 -74 -207 -90 -207 -6 0 -10
-4 -10 -10 0 -6 72 -10 195 -10 l195 0 -25 38 c-13 20 -37 66 -52 102 -25 60
-27 76 -28 197 l0 133 -91 0 -90 0 4 -90z"/>
<path d="M174 309 c-16 -17 -16 -22 -4 -29 8 -6 114 -10 235 -10 121 0 227 4
235 10 12 7 12 12 -4 29 -18 20 -30 21 -231 21 -201 0 -213 -1 -231 -21z"/>
<path d="M132 234 c-19 -13 -22 -24 -22 -90 l0 -74 295 0 295 0 0 74 c0 110
10 106 -295 106 -211 0 -254 -2 -273 -16z"/>
</g>
</svg>
