<?xml version="1.0" standalone="no"?>
<!DOCTYPE svg PUBLIC "-//W3C//DTD SVG 20010904//EN"
 "http://www.w3.org/TR/2001/REC-SVG-20010904/DTD/svg10.dtd">
<svg version="1.0" xmlns="http://www.w3.org/2000/svg"
 width="67.000000pt" height="114.000000pt" viewBox="0 0 67.000000 114.000000"
 preserveAspectRatio="xMidYMid meet">
<metadata>
Created by potrace 1.16, written by Peter Selinger 2001-2019
</metadata>
<g transform="translate(0.000000,114.000000) scale(0.100000,-0.100000)"
fill="#000000" stroke="none">
<path d="M318 1109 c-3 -35 -5 -37 -101 -79 -60 -26 -69 -34 -86 -73 -15 -35
-31 -51 -75 -76 -55 -32 -56 -33 -56 -77 0 -24 4 -44 9 -44 5 0 36 7 70 15 33
9 93 20 133 25 40 5 83 12 96 16 37 11 28 -22 -40 -141 -80 -143 -107 -210
-108 -262 l0 -43 214 0 214 0 15 68 c25 109 30 192 18 293 -15 123 -67 235
-138 298 -26 24 -64 58 -83 77 -46 44 -78 45 -82 3z"/>
<path d="M310 330 c-153 -4 -175 -7 -178 -22 -3 -13 8 -18 52 -23 70 -9 412
-2 422 8 15 15 -22 35 -71 39 -27 2 -129 1 -225 -2z"/>
<path d="M85 236 c-11 -17 -15 -42 -13 -88 l3 -63 290 0 290 0 3 69 c5 111 18
106 -294 106 l-264 0 -15 -24z"/>
</g>
</svg>
