<?xml version="1.0" standalone="no"?>
<!DOCTYPE svg PUBLIC "-//W3C//DTD SVG 20010904//EN"
 "http://www.w3.org/TR/2001/REC-SVG-20010904/DTD/svg10.dtd">
<svg version="1.0" xmlns="http://www.w3.org/2000/svg"
 width="119.000000pt" height="118.000000pt" viewBox="0 0 119.000000 118.000000"
 preserveAspectRatio="xMidYMid meet">

<g transform="translate(0.000000,118.000000) scale(0.100000,-0.100000)"
fill="#000000" stroke="none">
<path d="M482 1102 c-24 -10 -40 -22 -38 -28 3 -7 -10 -15 -30 -19 -34 -6 -84
-40 -84 -57 0 -4 17 -9 38 -9 l37 -2 -43 -7 c-48 -7 -63 -22 -60 -60 1 -14 -4
-35 -11 -48 -16 -30 -6 -63 17 -55 16 6 16 5 0 -14 -19 -21 -23 -50 -10 -70 6
-10 12 -10 28 2 30 23 40 18 10 -6 -21 -16 -26 -29 -26 -64 0 -24 5 -47 10
-50 6 -3 10 -22 10 -41 0 -41 36 -86 51 -63 5 8 9 25 10 39 1 20 3 21 6 5 2
-11 -3 -44 -10 -73 -14 -52 -14 -53 12 -73 14 -12 26 -30 26 -42 0 -12 9 -26
21 -32 18 -9 19 -13 8 -23 -8 -7 -14 -25 -14 -40 0 -31 -7 -43 -35 -58 -11 -6
-21 -19 -23 -28 -3 -14 17 -16 207 -16 179 0 211 2 211 15 0 8 -8 19 -19 24
-10 6 -26 29 -35 53 -10 23 -25 48 -34 55 -15 11 -14 12 10 13 27 0 42 13 44
40 1 8 2 25 3 38 0 12 8 22 16 22 11 0 15 12 15 44 0 26 -6 48 -15 56 -8 7
-15 19 -15 27 0 7 -15 22 -33 33 -18 11 -43 33 -55 50 -13 16 -29 30 -37 30
-8 0 -21 13 -30 30 -20 38 -19 43 4 30 11 -5 30 -10 43 -10 13 0 38 -14 57
-30 59 -52 131 -33 131 36 0 17 -8 37 -19 46 -11 9 -25 35 -32 57 -7 23 -16
41 -21 41 -4 0 -8 18 -8 40 0 23 -7 52 -16 66 -16 23 -16 26 2 39 10 8 25 15
32 15 40 1 -21 38 -117 71 -64 23 -130 23 -189 1z m72 -57 c-7 -16 -24 -21
-24 -6 0 8 7 13 27 20 1 1 0 -6 -3 -14z m46 1 c0 -2 -7 -7 -16 -10 -8 -3 -12
-2 -9 4 6 10 25 14 25 6z m-225 -136 c-3 -5 -14 -10 -23 -9 -14 0 -13 2 3 9
27 11 27 11 20 0z m131 -69 c-19 -20 -26 -39 -27 -72 -2 -32 -3 -36 -6 -15 -7
44 5 91 30 118 16 18 23 21 25 10 2 -8 -8 -26 -22 -41z m254 33 c0 -11 -49 -2
-53 10 -5 12 -1 13 24 4 16 -5 29 -12 29 -14z m-139 -221 c13 -16 12 -17 -3
-4 -10 7 -18 15 -18 17 0 8 8 3 21 -13z m-254 -19 c-3 -3 -12 -4 -19 -1 -8 3
-5 6 6 6 11 1 17 -2 13 -5z m320 -41 c15 -21 36 -47 46 -57 16 -19 23 -66 11
-79 -13 -13 -34 7 -34 33 0 41 -26 95 -57 119 -21 15 -24 20 -11 21 9 0 30
-17 45 -37z"/>
<path d="M329 144 c-20 -6 -44 -48 -35 -63 10 -15 582 -15 592 0 3 6 -5 23
-20 38 l-26 26 -248 2 c-136 0 -254 -1 -263 -3z m449 -11 c-15 -2 -42 -2 -60
0 -18 2 -6 4 27 4 33 0 48 -2 33 -4z"/>
</g>
</svg>
